HIERARCHY
ROOT Hip
{
  OFFSET 0.0 0.0 0.0
  CHANNELS 6 Xposition Yposition Zposition Xrotation Yrotation Zrotation
  JOINT LowerSpine
  {
    OFFSET 0.0 0.061367 -0.03653
    CHANNELS 3 Xrotation Yrotation Zrotation
    JOINT MiddleSpine
    {
      OFFSET 0.0 0.056002 0.002633
      CHANNELS 3 Xrotation Yrotation Zrotation
      JOINT Chest
      {
        OFFSET 0.0 0.069296 -0.013882
        CHANNELS 3 Xrotation Yrotation Zrotation
        JOINT Neck
        {
          OFFSET 0.0 0.156156 -0.002923
          CHANNELS 3 Xrotation Yrotation Zrotation
          JOINT Head
          {
            OFFSET 0.0 0.088183 0.023986
            CHANNELS 3 Xrotation Yrotation Zrotation
            End Site
            {
              OFFSET 1e-06 0.123215 0.003678
            }
          }
        }
        JOINT LClavicle
        {
          OFFSET 0.014189 0.150698 0.046467
          CHANNELS 3 Xrotation Yrotation Zrotation
          JOINT LShoulder
          {
            OFFSET 0.082893 0.021616 -0.034976
            CHANNELS 3 Xrotation Yrotation Zrotation
            JOINT LForearm
            {
              OFFSET 0.195645 -0.000695 -0.001695
              CHANNELS 3 Xrotation Yrotation Zrotation
              JOINT LHand
              {
                OFFSET 0.163209 0.000474 -0.000977
                CHANNELS 3 Xrotation Yrotation Zrotation
                End Site
                {
                  OFFSET 0.0 0.006864 0.0
                }
              }
            }
          }
        }
        JOINT RClavicle
        {
          OFFSET -0.014189 0.150698 0.046467
          CHANNELS 3 Xrotation Yrotation Zrotation
          JOINT RShoulder
          {
            OFFSET -0.082908 0.021619 -0.034982
            CHANNELS 3 Xrotation Yrotation Zrotation
            JOINT RForearm
            {
              OFFSET -0.195645 -0.000695 -0.001695
              CHANNELS 3 Xrotation Yrotation Zrotation
              JOINT RHand
              {
                OFFSET -0.163209 0.000474 -0.000977
                CHANNELS 3 Xrotation Yrotation Zrotation
                End Site
                {
                  OFFSET 0.0 0.006864 0.0
                }
              }
            }
          }
        }
      }
    }
  }
  JOINT RThigh
  {
    OFFSET -0.072558 0.02774 -0.005953
    CHANNELS 3 Xrotation Yrotation Zrotation
    JOINT RShin
    {
      OFFSET -0.005253 -0.285537 0.0
      CHANNELS 3 Xrotation Yrotation Zrotation
      JOINT RFoot
      {
        OFFSET 0.0 -0.28038 0.0
        CHANNELS 3 Xrotation Yrotation Zrotation
        JOINT RToe
        {
          OFFSET 0.0 -0.030816 0.064441
          CHANNELS 3 Xrotation Yrotation Zrotation
          End Site
          {
            OFFSET 0.0 0.0 0.043231
          }
        }
      }
    }
  }
  JOINT LThigh
  {
    OFFSET 0.072557 0.027741 -0.005953
    CHANNELS 3 Xrotation Yrotation Zrotation
    JOINT LShin
    {
      OFFSET 0.005253 -0.285539 0.0
      CHANNELS 3 Xrotation Yrotation Zrotation
      JOINT LFoot
      {
        OFFSET 0.0 -0.28038 0.0
        CHANNELS 3 Xrotation Yrotation Zrotation
        JOINT LToe
        {
          OFFSET 0.0 -0.030816 0.064441
          CHANNELS 3 Xrotation Yrotation Zrotation
          End Site
          {
            OFFSET 0.0 0.0 0.043231
          }
        }
      }
    }
  }
}
MOTION
Frames: 6
Frame Time: 0.03333333333333333
0.038733 0.560135 -0.019723 -6.534159 2.373133 1.282421 1.55311 0.154654 -0.098627 2.164311 2.365993 0.273288 10.681452 9.122808 2.798301 1.245408 0.049045 0.137473 -0.021207 0.130342 0.015365 -1.161889 -0.186742 -11.763643 8.798719 -29.615667 -57.538906 7.482995 -40.812847 -1.260742 -0.02155 -0.016648 0.044376 -0.71181 1.18979 8.891057 -19.004229 31.304277 56.344101 166.498764 58.607082 175.318802 0.086477 -0.013968 0.028166 0.853013 2.363022 -2.056257 11.169953 1.054935 1.327978 -6.387402 0.892766 0.497527 0.093579 0.180068 0.013026 9.322738 6.07827 -0.098063 -0.249279 3.993934 1.073862 -4.734509 2.036179 1.216267 -0.042651 0.031565 0.020874 
0.039134 0.560051 -0.019966 -6.608397 2.30961 1.226871 1.546601 0.150888 -0.094135 2.154503 2.350496 0.282676 10.652138 9.100273 2.787929 1.245627 0.049609 0.139642 -0.020934 0.126436 0.014569 -1.160777 -0.18532 -11.782338 8.806532 -29.685776 -57.619976 7.542839 -40.469761 -1.235448 -0.020287 -0.014441 0.042065 -0.704236 1.194647 8.859092 -19.257681 31.40369 56.37619 166.350433 58.345791 175.431915 0.083545 -0.014555 0.027939 0.895381 2.407123 -2.043448 11.158716 1.091112 1.301869 -6.354893 0.889914 0.497424 0.093539 0.184014 0.014101 9.430867 6.100635 -0.14577 -0.226883 4.016209 1.084739 -4.789551 2.064913 1.234177 -0.04136 0.028835 0.020485 
0.039474 0.559932 -0.020249 -6.671076 2.246216 1.173606 1.543475 0.147183 -0.092395 2.142967 2.335612 0.291174 10.612526 9.069467 2.785625 1.246817 0.051079 0.14257 -0.020605 0.123521 0.013712 -1.158483 -0.183525 -11.794053 8.809145 -29.734219 -57.691383 7.584853 -40.160046 -1.21232 -0.019059 -0.012259 0.039869 -0.697822 1.195484 8.829456 -19.451033 31.466177 56.411568 166.211288 58.100662 175.533707 0.081869 -0.015902 0.027789 0.928974 2.430539 -2.024481 11.137893 1.113063 1.290145 -6.324142 0.888597 0.497756 0.094025 0.187961 0.014927 9.520279 6.098768 -0.179795 -0.20555 4.019255 1.096111 -4.836133 2.089464 1.249205 -0.040411 0.026367 0.020334 
0.039766 0.559836 -0.02054 -6.731653 2.17302 1.124752 1.540615 0.143434 -0.092484 2.129893 2.320462 0.298183 10.573595 9.024888 2.787668 1.24668 0.052665 0.146173 -0.020172 0.121305 0.012786 -1.15645 -0.183616 -11.801413 8.813105 -29.757458 -57.749222 7.606697 -39.869255 -1.186094 -0.018017 -0.010277 0.037943 -0.693282 1.194937 8.806931 -19.536674 31.477457 56.432865 166.107864 57.86935 175.623703 0.080829 -0.017433 0.027633 0.962545 2.434388 -2.002526 11.108086 1.121664 1.287294 -6.2946 0.888503 0.49846 0.094742 0.191544 0.015498 9.602825 6.073902 -0.201962 -0.194304 4.005652 1.108213 -4.875219 2.109808 1.261814 -0.039583 0.02418 0.020235 
0.040021 0.559745 -0.020843 -6.787826 2.092508 1.081013 1.538132 0.139571 -0.094904 2.114589 2.304025 0.30389 10.534832 8.970196 2.797722 1.245786 0.053355 0.151515 -0.019745 0.120637 0.0121 -1.157154 -0.18393 -11.802473 8.821999 -29.751738 -57.787254 7.612328 -39.625546 -1.157902 -0.017476 -0.00927 0.036495 -0.691922 1.200822 8.787259 -19.529911 31.440983 56.430851 166.046753 57.643219 175.698715 0.080517 -0.018525 0.027477 0.995288 2.418556 -1.982322 11.071081 1.116768 1.294247 -6.269664 0.890037 0.500871 0.095826 0.193823 0.015673 9.67653 6.030747 -0.216721 -0.194901 3.975012 1.125071 -4.905205 2.125553 1.271493 -0.039278 0.023163 0.020188 
0.040252 0.559653 -0.021143 -6.837205 2.009064 1.042786 1.536152 0.13612 -0.09969 2.097207 2.286165 0.307285 10.492551 8.90494 2.816929 1.244732 0.053111 0.157818 -0.019359 0.121796 0.011648 -1.160117 -0.182034 -11.796448 8.837371 -29.715933 -57.811684 7.606199 -39.421722 -1.128204 -0.017474 -0.009254 0.035625 -0.692207 1.211582 8.769277 -19.450918 31.367054 56.403767 166.019165 57.414318 175.760056 0.081174 -0.019201 0.02736 1.026934 2.384209 -1.968382 11.024292 1.100283 1.311985 -6.249569 0.893069 0.505601 0.097384 0.194769 0.01535 9.737745 5.973376 -0.224795 -0.205599 3.931935 1.146339 -4.925438 2.137693 1.278126 -0.039455 0.023345 0.020295 
